# File produced by Open Asset Import Library (http://www.assimp.sf.net)
# (assimp v3.1.187496374)

mtllib AllenKey.obj.mtl

# 19 vertex positions
v  10 380 14.641
v  10 380 -20
v  10 390 -2.67949
v  -147.5 390 -2.67949
v  -147.5 380 -20
v  20 380 -2.67949
v  -10 360 14.641
v  -20 350 -2.67949
v  -10 0 14.641
v  -20 0 -2.67949
v  -10 360 -20
v  -10 0 -20
v  -147.5 360 14.641
v  -147.5 350 -2.67949
v  -147.5 360 -20
v  -147.5 380 14.641
v  10 0 14.641
v  10 0 -20
v  20 0 -2.67949

# 0 UV coordinates

# 22 vertex normals
vn 1 8.9706e-15 1.53837e-16
vn 0 0.866025 -0.5
vn 6.22571e-16 0.866025 -0.5
vn 0 1 0
vn -0.866025 0 0.5
vn -0.866025 4.27325e-18 -0.5
vn -0.866025 -0 -0.5
vn 0 -0.866025 0.5
vn -3.48305e-18 -0.866025 0.5
vn -1 1.42109e-15 8.20464e-16
vn -1 7.10543e-16 -4.10232e-16
vn 6.25116e-16 0.866025 0.5
vn 0 0.866025 0.5
vn -4.44089e-16 0 1
vn -3.20553e-31 -4.44089e-16 1
vn 0 -4.44089e-16 1
vn -0 -0.866025 -0.5
vn 0 0 -1
vn 0.866025 -1.16866e-18 -0.5
vn 0.866025 0 -0.5
vn 0.866025 0 0.5
vn 0 -1 0

# Mesh '<STL_BINARY>' with 34 faces
g <STL_BINARY>
usemtl DefaultMaterial
f  1//1 2//1 3//1
f  3//2 2//2 4//2
f  4//2 2//2 5//3
f  1//4 6//4 2//4
f  7//5 8//5 9//5
f  9//5 8//5 10//5
f  11//6 12//6 8//6
f  8//6 12//6 10//7
f  7//8 13//8 8//8
f  8//8 13//8 14//9
f  15//10 14//10 5//10
f  5//10 14//10 4//11
f  4//11 14//10 13//11
f  4//11 13//11 16//10
f  1//12 3//12 16//12
f  16//12 3//12 4//13
f  17//14 1//14 7//14
f  7//14 9//14 17//14
f  7//14 1//14 16//15
f  7//14 16//15 13//16
f  11//17 8//17 15//17
f  15//17 8//17 14//17
f  15//18 5//18 11//18
f  11//18 5//18 2//18
f  11//18 2//18 18//18
f  18//18 12//18 11//18
f  19//19 18//19 6//19
f  6//19 18//19 2//20
f  17//21 19//21 1//21
f  1//21 19//21 6//21
f  12//22 18//22 10//22
f  10//22 18//22 19//22
f  10//22 19//22 9//22
f  9//22 19//22 17//22

